<svg version="1.1" viewBox="0.0 0.0 512.0 512.0" fill="none" stroke="none" stroke-linecap="square" stroke-miterlimit="10" xmlns:xlink="http://www.w3.org/1999/xlink" xmlns="http://www.w3.org/2000/svg"><clipPath id="p.0"><path d="m0 0l512.0 0l0 512.0l-512.0 0l0 -512.0z" clip-rule="nonzero"/></clipPath><g clip-path="url(#p.0)"><path fill="#000000" fill-opacity="0.0" d="m0 0l512.0 0l0 512.0l-512.0 0z" fill-rule="evenodd"/><path fill="#162850" d="m-0.36220473 -0.36220473l512.72437 0l0 512.72437l-512.72437 0z" fill-rule="evenodd"/><path fill="#ffffff" d="m18.637794 409.84686l85.78125 -305.96875l29.046883 0l-85.56251 305.96875l-29.265625 0zm114.83581 0l85.78125 -305.96875l29.046875 0l-85.5625 305.96875l-29.265625 0z" fill-rule="nonzero"/><path fill="#000000" fill-opacity="0.0" d="m266.06696 117.87389l226.77167 -0.15748596" fill-rule="evenodd"/><path stroke="#b4c62e" stroke-width="24.0" stroke-linejoin="round" stroke-linecap="butt" d="m266.06696 117.87389l226.77167 -0.15748596" fill-rule="evenodd"/><path fill="#000000" fill-opacity="0.0" d="m266.06696 189.15735l226.77167 -0.1574707" fill-rule="evenodd"/><path stroke="#b4c62e" stroke-width="24.0" stroke-linejoin="round" stroke-linecap="butt" d="m266.06696 189.15735l226.77167 -0.1574707" fill-rule="evenodd"/><path fill="#000000" fill-opacity="0.0" d="m266.06696 256.0786l113.38583 -0.1574707" fill-rule="evenodd"/><path stroke="#b4c62e" stroke-width="24.0" stroke-linejoin="round" stroke-linecap="butt" d="m266.06696 256.0786l113.38583 -0.1574707" fill-rule="evenodd"/></g></svg>